<?xml version="1.0" encoding="UTF-8"?>
<svg id="Layer_2" data-name="Layer 2" xmlns="http://www.w3.org/2000/svg" viewBox="0 0 469.09 517.3">
  <defs>
    <style>
      .cls-1 {
        fill: #ff8a1f;
      }
    </style>
  </defs>
  <g id="Layer_1-2" data-name="Layer 1">
    <g>
      <path class="cls-1" d="M449.47,353.5c.26-2.3.45-4.6.52-6.89.19-5.62-1.18-10.55-5.87-13.96-.41-.3-.83-.6-1.26-.89-1.97-1.36-4.36-3.16-6.64-3.92-1.28-.42-2.77-.4-3.86.38-3.17,2.27-1,8.67-.64,11.81.56,4.78,1.11,9.55,1.67,14.33.46,3.91,3.94,18.74-2.74,19.66-1.36.19-2.63-.65-3.73-1.46-16.44-12.19-24.44-27.62-36.89-43.5-1.07-1.37-2.95-1.86-4.6-1.18-2.97,1.26-5.83,2.75-8.5,4.46-.95.63-1.59,1.57-1.77,2.7-.19,1.09.11,2.24.85,3.09,5.6,6.9,7.38,10.88,11.65,16.72,4.38,5.99,9.12,10.33,12.85,15.83,3.76,5.54,8.17,10.8,12.18,16.21,1.82,2.45,3.65,4.92,5.92,6.96,2.26,2.05,5.01,3.67,8.03,4.1,6.28.91,12.34-3.57,15.3-9.18,1.45-2.74,2.32-5.74,2.89-8.77.53-2.86,3.96-20.48,4.63-26.5Z"/>
      <path class="cls-1" d="M421.74,344.41c-.01.06-.02.1-.02.1-3.09,3.27-7.33-3.02-10.01-6.64-2.68-3.62-5.87-7.84-8.05-10.71-.52-.64-.69-1.46-.55-2.24.17-.78.64-1.45,1.33-1.87,1.38-.82,3.45-.71,4.99-.68,1.27.02,2.58-.03,3.83.25,1.31.3,2.09,1.36,2.74,2.44,1.72,2.88,3,6.02,4.45,9.04,1.53,3.21,2.04,6.83,1.3,10.31Z"/>
      <path class="cls-1" d="M448.45,172.12c.51-.72.96-1.5,1.14-2.36.94-4.4-4.37-3.71-6.91-4.6-2.93-1.03-4.19-3.15-5.74-6.27-7.4-14.89-13.83-31.07-19.04-48.03-1.37-4.39-2.7-8.78-4.03-13.16-5.88-19.32-11.95-39.3-19.04-58.53-.31-.82-.86-1.53-1.61-2-4.58-2.78-9.36-5.52-14.65-8.27-1.41-.78-3.21-.55-4.43.55-1.21,1.1-1.61,2.86-1.02,4.39,3.33,8.31,6.58,17.32,10.27,28.4,3.41,10.19,6.7,20.41,9.99,30.64,6.54,20.22,13.28,41.1,20.61,61.43,3.45,9.58,7.24,16.93,14.68,23.79,1.94,1.79,3.6,2.06,6.24,2.02,4.98-.08,10.63-4.09,13.39-7.78.05-.07.11-.14.16-.22Z"/>
      <path class="cls-1" d="M449.78,126.57c-.39.98-.86,1.96-1.41,3.02-.94,1.68-2.74,3.96-5.01,3.33-.82-.24-1.49-.82-2.08-1.41-1.14-1.1-2.31-2.39-3.37-3.76-1.14-3.53-2.27-7.05-3.41-10.54-1.33-4.07-2.62-8.19-3.96-12.26-2-6.15-4-12.26-6.03-18.37-3.68-11.09-6.93-20.1-10.26-28.4-.59-1.53-.2-3.29,1.02-4.39,1.21-1.1,3.02-1.33,4.43-.55,5.29,2.74,10.07,5.49,14.65,8.27.74.47,1.29,1.17,1.61,2,1.02,2.78,2.04,5.56,3.02,8.34,3.25,9.32,6.31,18.77,9.28,28.17,0,.08.04.2.04.28.75,3.33,1.49,6.66,2.12,9.99,1.21,6.31,1.57,10.93-.63,16.3Z"/>
      <path class="cls-1" d="M414.78,429.15c4.98,2.51,10.19,3.76,15.32,3.76,10.5,0,19.1-3.05,26.78-12.69,4.13-5.14,7.66-10.82,10.8-17.3.99-2.05,1.5-4.33,1.4-6.6-.3-6.66-.94-11.19-3.23-17.37-.63-1.57-2.08-2.58-3.8-2.51-1.68.04-3.17,1.17-3.64,2.78-3.21,10.73-5.85,17.59-11.14,25.78-5.29,8.31-15,14.63-28.72,6.01-10.62-6.74-21.33-24.04-27.79-32.34-9.09-11.68-17.16-22.37-24.8-32.71-.67-.9-1.69-1.49-2.82-1.57-1.14-.12-2.27.31-3.1,1.14-.23.24-.47.51-.7.78l-.04.08h0c-1.61,1.8-3.21,3.56-4.94,5.29-1.37,1.37-1.53,3.53-.39,5.09,9.72,13.16,19.71,26.6,30.6,41.1,6.03,8.03,17.33,24.78,30.22,31.28Z"/>
      <path class="cls-1" d="M388.9,445.75c6.35,5.8,13.32,11.68,22.06,18.53.71.55,1.57.86,2.43.86s1.65-.28,2.35-.82c2.59-1.92,5.17-3.92,7.68-5.99.9-.74,3.55-3.92,3.55-5.09,0-1.17-4.62-4.42-5.66-5.01-26.79-15.23-48.61-47.88-76.5-83.25-1.26-1.6-3.57-1.88-5.25-.71-2.66,1.84-9.86,7.4-12.72,9.13-.94.59-1.65,1.57-1.84,2.7-.2,1.1.12,2.27.86,3.14,19.82,24.06,41.06,46.43,63.04,66.52Z"/>
      <path class="cls-1" d="M394.31,143.96c-7.99-18.84-15.12-38.51-22.06-57.47-5.88-16.14-11.91-32.79-18.49-48.97-3.29-7.99-6.62-15.4-10.23-22.57-.43-.94-1.25-1.65-2.23-1.96-4.78-1.61-9.68-3.1-15.01-4.58-1.53-.39-3.13.12-4.11,1.33-.98,1.25-1.14,2.94-.39,4.31,7.99,14.73,15.16,30.6,21.86,48.58,3.53,9.48,6.97,19.2,10.27,28.56,10.93,30.99,22.21,63.04,39.3,92.23.28.49.57.97.86,1.46,2.59,4.32,7.27,6.96,12.3,6.97h0c2.51,0,5.01-.16,7.52-.43,1.33-.16,2.51-1.02,3.1-2.23.55-1.25.47-2.66-.27-3.8-9.13-13.87-16.65-27.82-22.41-41.41Z"/>
      <path class="cls-1" d="M356.98,438.87c-.81,0-1.64-.31-2.33-.75-.92-.59-1.84-1.17-2.76-1.76-1.95-1.25-3.89-2.51-5.82-3.78-3.82-2.51-7.61-5.06-11.37-7.65-7.35-5.06-14.58-10.29-21.69-15.69-6.09-4.63-12.09-9.39-17.97-14.28-.04-.12-.12-.2-.16-.31-.59-1.25-1.61-2.23-1.41-3.64.2-1.37,1.1-2.55,2.39-3.06,1.37-.59,2.66-1.14,3.96-1.68,5.09-2.23,10.97-1.53,15.32,1.92,4.23,3.33,8.7,6.74,13.44,10.27.67.51,1.33,1.02,2,1.49,4.27,2.98,7.95,7.56,11.6,11.28,3.45,3.49,6.9,6.97,10.26,10.54,2.82,2.98,5.21,6.07,6.62,9.99.27.78.55,1.76.7,2.7.2,1.19.13,2.73-.78,3.63-.57.56-1.28.79-2,.78Z"/>
      <path class="cls-1" d="M279.95,56.82c-9.91-20.61-21.98-39.26-35.85-55.48-.82-.94-2-1.45-3.25-1.33-4.62.31-8.89.74-13.08,1.21-1.45.2-2.7,1.17-3.21,2.55-.51,1.37-.2,2.9.78,4,17.79,19.39,32.71,43.06,44.39,70.36,6.9,16.14,14.46,32.4,23.11,49.76.47.98,1.37,1.72,2.39,2.04,4.86,1.37,9.6,3.02,14.14,4.9.47.2.98.27,1.49.27,1.06,0,2.12-.43,2.86-1.21,1.1-1.21,1.37-2.98.67-4.43-6.78-13.67-13.32-27.74-19.71-41.37-4.86-10.46-9.72-20.88-14.73-31.26Z"/>
      <path class="cls-1" d="M269.33,414.8c30.95,25.82,68.41,47.25,110.21,69.78.55.31,1.21.47,1.84.47.63,0,1.25-.12,1.84-.43,3.56-1.88,7.05-3.88,10.7-6.11,1.21-.74,1.92-2.08,1.88-3.49-.04-1.41-.82-2.66-2.08-3.33-47.17-24.92-88.62-49.41-122.43-78.99-.7-.63-1.65-.98-2.59-.98-5.25.39-10.03.47-14.97.27-1.65-.08-3.13.86-3.76,2.39-.67,1.53-.27,3.29.98,4.39,5.92,5.45,12.11,10.85,18.37,16.03Z"/>
      <path class="cls-1" d="M240.77,62.39c-11.01-21.31-24.25-39.73-39.37-54.69-.94-.98-2.35-1.37-3.64-1.06-3.84.94-7.84,2-11.87,3.21-1.37.39-2.39,1.49-2.7,2.86-.35,1.37.12,2.82,1.14,3.76,15.4,14.14,28.4,31.66,38.63,52.07,9.32,18.65,18.8,36.91,28.17,54.26.67,1.25,2,2.04,3.45,2.04h.12c4.74-.12,8.66-.04,12.38.2.08,0,.2.04.27.04,1.33,0,2.59-.71,3.29-1.8.78-1.21.82-2.74.16-4-10.23-18.92-20.29-38.08-30.01-56.89Z"/>
      <path class="cls-1" d="M222.43,96.87c-13.87-24.41-28.84-45.29-44.51-62.02-3.31-3.55-6.76-6.89-10.3-10-4.37-3.84-10.64-4.74-15.92-2.31-1.6.73-3.17,1.47-4.68,2.2-1.25.59-2.08,1.84-2.19,3.25-.08,1.41.59,2.74,1.76,3.53,6.9,4.62,13.44,10.15,19.39,16.49,19.67,20.88,36.32,46.15,52.38,79.53.67,1.37,2.04,2.19,3.53,2.19.35,0,.7-.04,1.06-.12,3.17-.9,6.42-1.65,9.91-2.31,1.21-.23,2.23-1.02,2.78-2.12.55-1.1.51-2.39,0-3.49-4.35-8.7-8.77-17.08-13.2-24.84Z"/>
      <path class="cls-1" d="M121.63,40.68c-1.21-.51-2.59-.35-3.64.35-3.96,2.55-7.56,5.01-11.01,7.56-1.21.86-1.8,2.35-1.57,3.8.27,1.45,1.29,2.66,2.7,3.1,9.01,2.82,17.55,7.52,25.35,13.99,19.43,15.98,31.93,37.49,41.61,56.46,2.86,5.6,5.68,11.2,8.5,16.81.47.98,1.37,1.72,2.43,2.04.31.08.71.12,1.06.12.7,0,1.41-.16,2.04-.55,3.06-1.88,6.07-3.56,9.05-5.05,1.88-.98,2.66-3.25,1.8-5.17-9.99-21.31-21.59-43.76-38.83-63.47-12.3-14.1-25.62-24.17-39.49-29.97Z"/>
      <path class="cls-1" d="M325.47,72.73c-7.76-18.96-15.83-38.55-25.58-56.97-2.35-4.55-4.7-8.62-7.09-12.54-.63-1.1-1.76-1.8-3.02-1.88-4.39-.59-8.85-1.02-13.28-1.29-1.49-.04-2.86.67-3.6,1.92-.75,1.29-.71,2.9.08,4.11,5.37,8.19,10.23,17.08,14.46,26.41,9.25,20.49,18.34,41.49,27.11,61.78,3.74,8.64,7.46,17.29,11.22,25.93,1.43,3.28,2.75,6.62,4.25,9.87,1.15,2.5,2.71,4.67,4.09,7.02,1.32,2.26,2.23,4.74,3.09,7.2,1.34,3.84,2.51,7.84,4.87,11.2,2.66,3.79,6.78,6.49,10.27,9.45,2.42,2.05,4.82,4.13,7.19,6.24,1.85,1.65,4.17,4.88,6.86,4.88.82,0,1.65-.24,2.35-.74,1.49-1.14,2-3.17,1.17-4.86-8.85-18.1-18.06-37.69-29.03-61.63-5.41-11.87-10.5-24.21-15.4-36.12Z"/>
      <path class="cls-1" d="M186.73,504.51c-2.51-1.8-4.98-3.64-7.44-5.52,2.15,1.06,4.39,2.08,6.58,3.1.47.78.59,1.29.86,2.43Z"/>
      <path class="cls-1" d="M138.04,440.89c27.15,27.78,59.2,52.97,95.28,74.91.5.31,1.08.5,1.66.55,8.22.62,14.26,2.7,20.08-2.33-14.65-20.06-40.49-29.92-59.72-44.73-22.97-17.7-43.92-38.72-62.97-60.52-38.14-43.63-68.45-93.68-91.26-146.88-11.67-27.23-18.92-54.65-21.55-81.49-.2-1.84-1.65-3.33-3.49-3.53-1.84-.24-3.61.94-4.15,2.7-2.66,8.27-4.9,16.65-6.66,24.96-.04.28-.08.55-.08.86,0,.24.04.47.08.74,5.72,29.31,15.94,59,30.32,88.27,27.39,55.67,61.86,104.96,102.45,146.49Z"/>
      <path class="cls-1" d="M187.04,508.39c-.82.67-2.19,2.35-2.19,2.43h.04l-.04.04c-.63.43-1.18.86-1.8,1.29-1.37.67-2.43,1.13-2.74,1.25-.55.24-1.06.39-1.57.59-4.39-1.21-8.74-2.62-12.97-4.27-20.37-15.08-39.06-31.34-55.91-48.54-21.82-22.33-41.84-46.86-59.98-73.46-.12-.16-.27-.35-.35-.55-13.67-21.16-26.48-42.9-38.2-65.19-2.04-3.88-4.03-7.8-5.96-11.72-.43-1.33-.86-2.62-1.29-3.92C1.96,295.26.63,283.98,0,272.74c-.08-1.92,1.21-3.6,3.06-4.03,1.88-.43,3.76.59,4.51,2.35,8.15,20.18,17.9,39.41,26.41,55.24.98,1.88,2,3.76,3.06,5.64,2.39,4.46,4.86,8.89,7.37,13.24,1.21,2.08,2.43,4.15,3.64,6.19,34.79,58.53,78.75,107.97,131.25,147.62,2.47,1.88,4.94,3.72,7.44,5.52.12.43.24.94.43,1.61.12.55,0,1.49-.12,2.27Z"/>
      <path class="cls-1" d="M211.43,452.88c28.72,22.84,58.49,43.14,88.5,60.33.63.35,1.29.55,1.96.55.2,0,.43-.04.63-.08,3.76-.59,7.8-1.41,12.42-2.43,1.57-.35,2.78-1.65,3.02-3.25.23-1.61-.55-3.17-1.96-4-22.18-12.5-45.56-28.05-71.42-47.48-31.58-23.78-54.5-43.17-74.28-62.92-38.98-38.83-64.37-85.88-84.04-126.82l-1.18-2.47c-12.34-25.54-25.11-51.91-29.85-80.39-4.47-26.56-1.41-47.68,9.68-66.45,5.21-8.78,13.16-14.77,22.41-16.85,8.97-2,18.37-.04,26.52,5.48,21.9,14.97,33.57,37.65,42.08,57.9l.27.63c.55,1.17,1.65,1.96,2.94,2.15,1.25.2,2.55-.24,3.41-1.14.76-.8,1.55-1.6,2.36-2.39,4.63-4.55,6.02-11.53,3.13-17.34-5.11-10.26-10.53-19.2-16.46-27.16-7.68-10.34-15.67-18.84-23.82-25.27-13.36-10.54-29.31-14.38-44.9-10.81-15.75,3.6-29.15,14.57-36.75,30.13-7.99,16.26-10.66,29.46-10.58,52.3-.59,30.64,11.17,59.43,22.21,84.04,21.24,47.17,48.54,101.43,89.8,146.17,20.37,22.14,43.72,41.49,63.9,57.55Z"/>
      <path class="cls-1" d="M266.55,451.98c23.7,16.81,49.52,32.83,78.98,49.01.59.31,1.21.47,1.88.47.43,0,.9-.04,1.33-.2,4.31-1.57,8.74-3.33,13.09-5.29,1.37-.59,2.27-1.92,2.35-3.41.04-1.49-.74-2.9-2.04-3.61-57.24-31.19-101.55-61.47-139.4-95.36-3.41-3.06-6.78-6.15-10.11-9.32-.08-.12-.24-.24-.35-.31-36.16-34.55-65.58-74.71-87.44-119.41-8.27-16.89-15.67-34.83-21.94-53.4-3.68-10.93-7.05-22.18-10.34-33.07-.92-3.1-1.86-6.19-2.8-9.29-.53-1.75-.35-3.57.02-5.35.05-.25.08-.5.08-.75v-3.57c-.08-6.54,2.27-10.07,7.91-11.95,1.8-.55,7.37-2.35,11.64,5.68,6.19,11.72,11.83,23.78,16.73,35.89,1.61,3.96,3.17,7.88,4.74,11.87.59,1.45,1.96,2.43,3.53,2.47,1.49.08,2.98-.82,3.64-2.23,1.08-2.25,2.26-4.53,3.52-6.81,2.16-3.91,2.5-8.58.87-12.74-1.86-4.74-3.74-9.48-5.6-14.22l-3.64-9.17c-2.27-5.8-5.84-11.2-9.32-16.18-7.95-11.32-18.3-15.91-29.15-12.89-16.18,4.55-23.66,13.63-22.88,27.74.94,16.3,3.76,31.5,8.38,45.25,13.01,38.67,27.23,71.07,43.49,99.12.04.12.12.24.16.35,4.78,8.23,9.91,16.38,15.2,24.17,11.71,17.12,24.72,33.54,38.71,48.89.12.12.24.24.35.31,25.11,27.62,54.03,52.89,88.43,77.3Z"/>
    </g>
  </g>
</svg>